<svg width="72" height="92" viewBox="0 0 72 92" fill="none" xmlns="http://www.w3.org/2000/svg">
<rect width="72" height="92" rx="10" fill="#FD2B2B"/>
<path d="M26 66H20C18.9391 66 17.9217 65.5786 17.1716 64.8284C16.4214 64.0783 16 63.0609 16 62V48C16 46.9391 16.4214 45.9217 17.1716 45.1716C17.9217 44.4214 18.9391 44 20 44H26M40 40V32C40 30.4087 39.3679 28.8826 38.2426 27.7574C37.1174 26.6321 35.5913 26 34 26L26 44V66H48.56C49.5247 66.0109 50.4608 65.6728 51.1958 65.048C51.9309 64.4232 52.4154 63.5538 52.56 62.6L55.32 44.6C55.407 44.0267 55.3683 43.4414 55.2067 42.8845C55.045 42.3276 54.7642 41.8126 54.3837 41.375C54.0032 40.9375 53.5322 40.5879 53.0031 40.3504C52.4741 40.113 51.8998 39.9934 51.32 40H40Z" stroke="white" stroke-width="4" stroke-linecap="round" stroke-linejoin="round"/>
</svg>
